<?xml version="1.0" encoding="UTF-8" standalone="no"?>
<!-- Created with Inkscape (http://www.inkscape.org/) -->

<svg
   xmlns:dc="http://purl.org/dc/elements/1.1/"
   xmlns:cc="http://creativecommons.org/ns#"
   xmlns:rdf="http://www.w3.org/1999/02/22-rdf-syntax-ns#"
   xmlns:svg="http://www.w3.org/2000/svg"
   xmlns="http://www.w3.org/2000/svg"
   xmlns:sodipodi="http://sodipodi.sourceforge.net/DTD/sodipodi-0.dtd"
   xmlns:inkscape="http://www.inkscape.org/namespaces/inkscape"
   width="210mm"
   height="297mm"
   viewBox="0 0 210 297"
   version="1.1"
   id="svg8"
   sodipodi:docname="listy.svg"
   inkscape:version="0.92.3 (2405546, 2018-03-11)">
  <defs
     id="defs2" />
  <sodipodi:namedview
     id="base"
     pagecolor="#ffffff"
     bordercolor="#666666"
     borderopacity="1.0"
     inkscape:pageopacity="0.0"
     inkscape:pageshadow="2"
     inkscape:zoom="0.7"
     inkscape:cx="154.17244"
     inkscape:cy="693.17943"
     inkscape:document-units="mm"
     inkscape:current-layer="layer1"
     showgrid="false"
     inkscape:snap-center="false"
     inkscape:snap-object-midpoints="false"
     inkscape:snap-grids="true"
     inkscape:snap-to-guides="true"
     inkscape:snap-page="false"
     inkscape:window-width="1920"
     inkscape:window-height="1017"
     inkscape:window-x="-8"
     inkscape:window-y="-8"
     inkscape:window-maximized="1" />
  <metadata
     id="metadata5">
    <rdf:RDF>
      <cc:Work
         rdf:about="">
        <dc:format>image/svg+xml</dc:format>
        <dc:type
           rdf:resource="http://purl.org/dc/dcmitype/StillImage" />
      </cc:Work>
    </rdf:RDF>
  </metadata>
  <g
     inkscape:label="Vrstva 1"
     inkscape:groupmode="layer"
     id="layer1">
    <path
       style="opacity:1;fill:#87d162;fill-opacity:0.69255664;stroke:none;stroke-width:2.56500006;stroke-linecap:butt;stroke-linejoin:miter;stroke-miterlimit:4;stroke-dasharray:none;stroke-dashoffset:0;stroke-opacity:1;paint-order:normal"
       d="m 32.545226,35.694683 c -0.490014,4.464479 3.379121,15.417181 -5.603277,13.349055 4.981019,11.18862 0.792734,15.952422 -2.830317,12.421465 1.601981,5.800516 6.941064,18.095666 -3.441133,13.729393 0.595238,4.027014 5.993648,17.220136 -1.315165,16.003675 2.172018,5.682424 7.295131,15.570419 1.935798,15.280719 5.228455,4.15231 6.924508,13.8297 16.086357,13.79296 0.09694,10e-4 0.190687,-0.002 0.286803,-0.002 0.424418,-5.24595 0.973076,-10.08146 1.540475,-14.64045 -3.352183,-1.15534 -6.02874,-2.88438 -7.647077,-5.27668 2.289447,1.97284 4.669599,3.74708 7.832595,3.80493 0.421021,-3.3212 0.840917,-6.496751 1.228349,-9.575123 -2.259539,-0.536781 -7.169046,-3.940913 -8.13077,-6.53035 1.40339,1.60243 3.7293,4.352978 8.294069,5.208984 0.45457,-3.692586 0.84873,-7.268361 1.10019,-10.786938 -3.308165,-1.377548 -6.432357,-3.216415 -8.33696,-8.102865 1.793817,3.34648 4.408493,5.80072 8.429977,6.724137 0.257164,-4.2189 0.300514,-8.392541 -0.0016,-12.673129 -3.749214,-1.197935 -5.982073,-4.566782 -8.144721,-8.0362 2.434005,3.050797 4.813765,6.271464 8.048604,6.819739 -0.504431,-5.892514 -1.676377,-12.01298 -3.851961,-18.754929 1.893586,4.62025 3.226269,9.094026 4.120679,13.611056 1.509271,-2.262328 3.076856,-4.269732 3.966681,-9.235094 -0.471929,5.31893 -2.141048,8.278678 -3.710884,10.5947 0.871818,4.889214 1.243819,9.85229 1.266073,15.126727 3.690747,-1.565304 6.225604,-3.981255 7.880657,-7.044532 -1.839574,4.659392 -5.347594,6.880477 -7.883242,8.244975 -0.01621,2.895346 -0.130241,5.885958 -0.323492,9.015471 2.790295,-0.419984 6.063247,-1.062424 8.656835,-4.182692 -2.048692,3.292366 -5.96824,4.423963 -8.71988,5.139737 -0.232725,3.525261 -0.559906,7.235643 -0.943097,11.163146 5.436222,-0.38567 5.520783,-1.754134 7.425388,-2.788461 -2.229138,2.768511 -4.949118,3.486211 -7.529255,3.836971 -0.550929,5.55881 -1.207384,11.55824 -1.886707,18.18184 8.338653,-1.02233 13.381468,-6.93294 18.597313,-13.84618 -7.82634,-0.39224 3.432249,-8.936899 4.441071,-15.470377 -7.330604,0.837822 1.679546,-11.371368 1.002525,-18.079516 C 58.766147,76.328875 59.917825,56.732799 58.663478,59.02666 52.245745,70.762873 48.606647,33.155562 46.706068,39.934284 44.260416,48.657144 43.73865,41.082933 32.545177,35.694233 Z"
       id="path871"
       inkscape:connector-curvature="0" />
    <path
       style="fill:#86a81a;fill-opacity:1;stroke-width:0.60733652"
       d="m 92.126323,56.973161 c 7.906847,-0.336294 12.567147,-4.196467 16.402397,-1.623667 9.67133,6.487814 14.43027,21.322145 14.1632,17.894881 -2.64105,-7.200725 -1.56807,-19.373375 1.73988,-26.328237 2.24368,-4.71728 8.95393,-10.244681 12.57422,-12.687381 -0.50635,4.51695 -1.87972,7.73659 -0.0138,12.941978 3.02066,8.425691 -9.39678,22.493346 -13.69925,25.9087 7.4958,-6.033369 14.49843,-8.206834 24.5988,-6.018623 2.68971,0.582722 7.62249,4.666159 11.87921,0.70643 -8.41984,13.030827 -22.71447,8.649807 -35.83627,6.468418 11.25542,9.913639 14.28339,5.117159 11.52693,20.468979 -1.48957,-4.46843 -3.69845,-4.95115 -7.32583,-7.65924 -2.46446,-1.83989 -3.58736,-3.70611 -4.69657,-12.849973 -11.63165,14.849907 -13.60692,12.205633 -22.52856,28.523394 -2.152457,0.2685 -2.909857,-0.0532 -3.953277,-0.74662 8.519957,-16.539511 27.454787,-25.727621 25.282577,-27.890564 -7.00448,4.751173 -13.80595,7.594213 -20.09065,5.579443 4.29955,-1.87826 4.94914,-4.43793 10.36586,-5.226305 3.01014,-0.438106 6.43354,-0.363541 9.83789,-0.735091 -6.72818,-1.405253 -15.54023,-1.244616 -21.00571,-4.606968 -4.660627,-2.867199 -3.512167,-7.090892 -9.221077,-12.119554 z"
       id="rect3711"
       inkscape:connector-curvature="0"
       sodipodi:nodetypes="cscscscscccscccccscscc" />
    <ellipse
       style="fill:#86d162;fill-opacity:0.69411765;stroke-width:0.26458332"
       id="path4519"
       cx="111.0305"
       cy="174.44122"
       r="31.844492" />
    <path
       style="fill:#afd137;fill-opacity:0.8770226;stroke-width:0.26458332"
       d="m 110.78594,152.70202 c 0,6.97279 0.0344,18.88136 0.031,25.01058 5.69723,0.0127 18.15297,0.0303 25.00991,0.0303 13.82972,0 25.04092,-11.21121 25.04092,-25.04093 0,-6.84014 -0.045,-17.67115 -0.0649,-24.97318 -7.53327,0.009 -17.98649,-0.0677 -24.97606,-0.0677 -13.82972,0 -25.04093,11.2112 -25.04093,25.04092 z"
       id="path4525"
       inkscape:connector-curvature="0"
       sodipodi:nodetypes="ccsscssc" />
    <path
       style="fill:#86d1b5;fill-opacity:0.69411765;stroke-width:0.26458332"
       d="m 160.89624,204.93461 c 0,13.82972 -11.2112,25.04093 -25.04093,25.04093 -13.82972,0 -25.04092,-11.21121 -25.04092,-25.04093 0,-6.84014 0.045,-17.67115 0.0649,-24.97318 7.53328,0.009 17.98649,-0.0677 24.97606,-0.0677 13.82972,0 25.04093,11.2112 25.04093,25.04092 z"
       id="path4525-6"
       inkscape:connector-curvature="0"
       sodipodi:nodetypes="ssscss" />
    <path
       style="fill:#006500;fill-opacity:0.59870552;stroke-width:0.26458332"
       d="m 83.196122,127.69982 c -13.82972,0 -25.04093,11.2112 -25.04093,25.04093 0,13.82972 11.21121,25.04092 25.04093,25.04092 6.840137,0 17.671148,-0.045 24.973178,-0.0649 -0.009,-7.53328 0.0677,-17.98649 0.0677,-24.97606 0,-13.82972 -11.211201,-25.04093 -25.040918,-25.04093 z"
       id="path4525-6-6"
       inkscape:connector-curvature="0"
       sodipodi:nodetypes="ssscss" />
    <path
       style="fill:#a87566;fill-opacity:0.75080907;stroke-width:0.26458332"
       d="m 58.214716,204.93883 c 0,6.97279 0.0344,18.88136 0.031,25.01058 5.697228,0.0127 18.15297,0.0303 25.00991,0.0303 13.829721,0 25.040924,-11.21121 25.040924,-25.04093 0,-6.84014 -0.045,-17.67115 -0.0649,-24.97318 -7.53327,0.009 -17.986493,-0.0677 -24.976063,-0.0677 -13.829721,0 -25.040932,11.2112 -25.040932,25.04092 z"
       id="path4525-3"
       inkscape:connector-curvature="0"
       sodipodi:nodetypes="ccsscssc" />
  </g>
</svg>
