<?xml version="1.0" encoding="UTF-8" standalone="no"?>
<!-- Created with Inkscape (http://www.inkscape.org/) -->

<svg
   xmlns:dc="http://purl.org/dc/elements/1.1/"
   xmlns:cc="http://creativecommons.org/ns#"
   xmlns:rdf="http://www.w3.org/1999/02/22-rdf-syntax-ns#"
   xmlns:svg="http://www.w3.org/2000/svg"
   xmlns="http://www.w3.org/2000/svg"
   xmlns:sodipodi="http://sodipodi.sourceforge.net/DTD/sodipodi-0.dtd"
   xmlns:inkscape="http://www.inkscape.org/namespaces/inkscape"
   width="210mm"
   height="297mm"
   viewBox="0 0 210 297"
   version="1.1"
   id="svg8"
   sodipodi:docname="listy.svg"
   inkscape:version="0.92.3 (2405546, 2018-03-11)">
  <defs
     id="defs2" />
  <sodipodi:namedview
     id="base"
     pagecolor="#ffffff"
     bordercolor="#666666"
     borderopacity="1.0"
     inkscape:pageopacity="0.0"
     inkscape:pageshadow="2"
     inkscape:zoom="0.49497475"
     inkscape:cx="261.46502"
     inkscape:cy="563.07574"
     inkscape:document-units="mm"
     inkscape:current-layer="layer1"
     showgrid="false"
     inkscape:snap-center="false"
     inkscape:snap-object-midpoints="false"
     inkscape:snap-grids="true"
     inkscape:snap-to-guides="true"
     inkscape:snap-page="false"
     inkscape:window-width="1920"
     inkscape:window-height="1017"
     inkscape:window-x="-8"
     inkscape:window-y="-8"
     inkscape:window-maximized="1" />
  <metadata
     id="metadata5">
    <rdf:RDF>
      <cc:Work
         rdf:about="">
        <dc:format>image/svg+xml</dc:format>
        <dc:type
           rdf:resource="http://purl.org/dc/dcmitype/StillImage" />
      </cc:Work>
    </rdf:RDF>
  </metadata>
  <g
     inkscape:label="Vrstva 1"
     inkscape:groupmode="layer"
     id="layer1">
    <path
       style="opacity:1;fill:#87d162;fill-opacity:0.69255664;stroke:none;stroke-width:2.56500006;stroke-linecap:butt;stroke-linejoin:miter;stroke-miterlimit:4;stroke-dasharray:none;stroke-dashoffset:0;stroke-opacity:1;paint-order:normal"
       d="m 32.545226,35.694683 c -0.490014,4.464479 3.379121,15.417181 -5.603277,13.349055 4.981019,11.18862 0.792734,15.952422 -2.830317,12.421465 1.601981,5.800516 6.941064,18.095666 -3.441133,13.729393 0.595238,4.027014 5.993648,17.220136 -1.315165,16.003675 2.172018,5.682424 7.295131,15.570419 1.935798,15.280719 5.228455,4.15231 6.924508,13.8297 16.086357,13.79296 0.09694,10e-4 0.190687,-0.002 0.286803,-0.002 0.424418,-5.24595 0.973076,-10.08146 1.540475,-14.64045 -3.352183,-1.15534 -6.02874,-2.88438 -7.647077,-5.27668 2.289447,1.97284 4.669599,3.74708 7.832595,3.80493 0.421021,-3.3212 0.840917,-6.496751 1.228349,-9.575123 -2.259539,-0.536781 -7.169046,-3.940913 -8.13077,-6.53035 1.40339,1.60243 3.7293,4.352978 8.294069,5.208984 0.45457,-3.692586 0.84873,-7.268361 1.10019,-10.786938 -3.308165,-1.377548 -6.432357,-3.216415 -8.33696,-8.102865 1.793817,3.34648 4.408493,5.80072 8.429977,6.724137 0.257164,-4.2189 0.300514,-8.392541 -0.0016,-12.673129 -3.749214,-1.197935 -5.982073,-4.566782 -8.144721,-8.0362 2.434005,3.050797 4.813765,6.271464 8.048604,6.819739 -0.504431,-5.892514 -1.676377,-12.01298 -3.851961,-18.754929 1.893586,4.62025 3.226269,9.094026 4.120679,13.611056 1.509271,-2.262328 3.076856,-4.269732 3.966681,-9.235094 -0.471929,5.31893 -2.141048,8.278678 -3.710884,10.5947 0.871818,4.889214 1.243819,9.85229 1.266073,15.126727 3.690747,-1.565304 6.225604,-3.981255 7.880657,-7.044532 -1.839574,4.659392 -5.347594,6.880477 -7.883242,8.244975 -0.01621,2.895346 -0.130241,5.885958 -0.323492,9.015471 2.790295,-0.419984 6.063247,-1.062424 8.656835,-4.182692 -2.048692,3.292366 -5.96824,4.423963 -8.71988,5.139737 -0.232725,3.525261 -0.559906,7.235643 -0.943097,11.163146 5.436222,-0.38567 5.520783,-1.754134 7.425388,-2.788461 -2.229138,2.768511 -4.949118,3.486211 -7.529255,3.836971 -0.550929,5.55881 -1.207384,11.55824 -1.886707,18.18184 8.338653,-1.02233 13.381468,-6.93294 18.597313,-13.84618 -7.82634,-0.39224 3.432249,-8.936899 4.441071,-15.470377 -7.330604,0.837822 1.679546,-11.371368 1.002525,-18.079516 C 58.766147,76.328875 59.917825,56.732799 58.663478,59.02666 52.245745,70.762873 48.606647,33.155562 46.706068,39.934284 44.260416,48.657144 43.73865,41.082933 32.545177,35.694233 Z"
       id="path871"
       inkscape:connector-curvature="0" />
  </g>
</svg>
